<?xml version="1.0" encoding="utf-8" standalone="no"?>
<!DOCTYPE svg PUBLIC "-//W3C//DTD SVG 1.1//EN"
  "http://www.w3.org/Graphics/SVG/1.1/DTD/svg11.dtd">
<svg xmlns:xlink="http://www.w3.org/1999/xlink" width="661.04pt" height="258.645pt" viewBox="0 0 661.04 258.645" xmlns="http://www.w3.org/2000/svg" version="1.1">
 <metadata>
  <rdf:RDF xmlns:dc="http://purl.org/dc/elements/1.1/" xmlns:cc="http://creativecommons.org/ns#" xmlns:rdf="http://www.w3.org/1999/02/22-rdf-syntax-ns#">
   <cc:Work>
    <dc:type rdf:resource="http://purl.org/dc/dcmitype/StillImage"/>
    <dc:date>2023-09-20T19:48:57.139369</dc:date>
    <dc:format>image/svg+xml</dc:format>
    <dc:creator>
     <cc:Agent>
      <dc:title>Matplotlib v3.7.2, https://matplotlib.org/</dc:title>
     </cc:Agent>
    </dc:creator>
   </cc:Work>
  </rdf:RDF>
 </metadata>
 <defs>
  <style type="text/css">*{stroke-linejoin: round; stroke-linecap: butt}</style>
 </defs>
 <g id="figure_1">
  <g id="patch_1">
   <path d="M 0 258.645 
L 661.04 258.645 
L 661.04 0 
L 0 0 
z
" style="fill: #ffffff"/>
  </g>
  <g id="axes_1">
   <g id="patch_2">
    <path d="M 24.44 228.96 
L 638.24 228.96 
L 638.24 7.2 
L 24.44 7.2 
z
" style="fill: #ffffff"/>
   </g>
   <g id="matplotlib.axis_1">
    <g id="xtick_1">
     <g id="line2d_1">
      <defs>
       <path id="m20bd7c2903" d="M 0 0 
L 0 3.5 
" style="stroke: #000000; stroke-width: 0.8"/>
      </defs>
      <g>
       <use xlink:href="#m20bd7c2903" x="24.44" y="228.96" style="stroke: #000000; stroke-width: 0.8"/>
      </g>
     </g>
     <g id="text_1">
      <!-- $0$ -->
      <g transform="translate(19.32 248.1175) scale(0.16 -0.16)">
       <defs>
        <path id="DejaVuSans-30" d="M 2034 4250 
Q 1547 4250 1301 3770 
Q 1056 3291 1056 2328 
Q 1056 1369 1301 889 
Q 1547 409 2034 409 
Q 2525 409 2770 889 
Q 3016 1369 3016 2328 
Q 3016 3291 2770 3770 
Q 2525 4250 2034 4250 
z
M 2034 4750 
Q 2819 4750 3233 4129 
Q 3647 3509 3647 2328 
Q 3647 1150 3233 529 
Q 2819 -91 2034 -91 
Q 1250 -91 836 529 
Q 422 1150 422 2328 
Q 422 3509 836 4129 
Q 1250 4750 2034 4750 
z
" transform="scale(0.015625)"/>
       </defs>
       <use xlink:href="#DejaVuSans-30" transform="translate(0 0.78125)"/>
      </g>
     </g>
    </g>
    <g id="xtick_2">
     <g id="line2d_2">
      <g>
       <use xlink:href="#m20bd7c2903" x="101.165" y="228.96" style="stroke: #000000; stroke-width: 0.8"/>
      </g>
     </g>
     <g id="text_2">
      <!-- $\omega_0$ -->
      <g transform="translate(90.605 248.1175) scale(0.16 -0.16)">
       <defs>
        <path id="DejaVuSans-Oblique-3c9" d="M 1369 -91 
Q 72 -91 434 1766 
Q 575 2500 1256 3500 
L 1875 3500 
Q 1231 2500 1088 1750 
Q 819 397 1519 397 
Q 2166 397 2478 2078 
L 3009 2078 
Q 2669 388 3316 397 
Q 4013 403 4275 1750 
Q 4419 2500 4169 3500 
L 4788 3500 
Q 5075 2500 4934 1766 
Q 4578 -94 3278 -91 
Q 2428 -88 2503 844 
Q 2194 -91 1369 -91 
z
" transform="scale(0.015625)"/>
       </defs>
       <use xlink:href="#DejaVuSans-Oblique-3c9" transform="translate(0 0.3125)"/>
       <use xlink:href="#DejaVuSans-30" transform="translate(83.740234 -16.09375) scale(0.7)"/>
      </g>
     </g>
    </g>
    <g id="xtick_3">
     <g id="line2d_3">
      <g>
       <use xlink:href="#m20bd7c2903" x="177.89" y="228.96" style="stroke: #000000; stroke-width: 0.8"/>
      </g>
     </g>
     <g id="text_3">
      <!-- $2\omega_0$ -->
      <g transform="translate(162.29 248.1175) scale(0.16 -0.16)">
       <defs>
        <path id="DejaVuSans-32" d="M 1228 531 
L 3431 531 
L 3431 0 
L 469 0 
L 469 531 
Q 828 903 1448 1529 
Q 2069 2156 2228 2338 
Q 2531 2678 2651 2914 
Q 2772 3150 2772 3378 
Q 2772 3750 2511 3984 
Q 2250 4219 1831 4219 
Q 1534 4219 1204 4116 
Q 875 4013 500 3803 
L 500 4441 
Q 881 4594 1212 4672 
Q 1544 4750 1819 4750 
Q 2544 4750 2975 4387 
Q 3406 4025 3406 3419 
Q 3406 3131 3298 2873 
Q 3191 2616 2906 2266 
Q 2828 2175 2409 1742 
Q 1991 1309 1228 531 
z
" transform="scale(0.015625)"/>
       </defs>
       <use xlink:href="#DejaVuSans-32" transform="translate(0 0.78125)"/>
       <use xlink:href="#DejaVuSans-Oblique-3c9" transform="translate(63.623047 0.78125)"/>
       <use xlink:href="#DejaVuSans-30" transform="translate(147.363281 -15.625) scale(0.7)"/>
      </g>
     </g>
    </g>
    <g id="xtick_4">
     <g id="line2d_4">
      <g>
       <use xlink:href="#m20bd7c2903" x="254.615" y="228.96" style="stroke: #000000; stroke-width: 0.8"/>
      </g>
     </g>
     <g id="text_4">
      <!-- $3\omega_0$ -->
      <g transform="translate(239.015 248.1175) scale(0.16 -0.16)">
       <defs>
        <path id="DejaVuSans-33" d="M 2597 2516 
Q 3050 2419 3304 2112 
Q 3559 1806 3559 1356 
Q 3559 666 3084 287 
Q 2609 -91 1734 -91 
Q 1441 -91 1130 -33 
Q 819 25 488 141 
L 488 750 
Q 750 597 1062 519 
Q 1375 441 1716 441 
Q 2309 441 2620 675 
Q 2931 909 2931 1356 
Q 2931 1769 2642 2001 
Q 2353 2234 1838 2234 
L 1294 2234 
L 1294 2753 
L 1863 2753 
Q 2328 2753 2575 2939 
Q 2822 3125 2822 3475 
Q 2822 3834 2567 4026 
Q 2313 4219 1838 4219 
Q 1578 4219 1281 4162 
Q 984 4106 628 3988 
L 628 4550 
Q 988 4650 1302 4700 
Q 1616 4750 1894 4750 
Q 2613 4750 3031 4423 
Q 3450 4097 3450 3541 
Q 3450 3153 3228 2886 
Q 3006 2619 2597 2516 
z
" transform="scale(0.015625)"/>
       </defs>
       <use xlink:href="#DejaVuSans-33" transform="translate(0 0.78125)"/>
       <use xlink:href="#DejaVuSans-Oblique-3c9" transform="translate(63.623047 0.78125)"/>
       <use xlink:href="#DejaVuSans-30" transform="translate(147.363281 -15.625) scale(0.7)"/>
      </g>
     </g>
    </g>
    <g id="xtick_5">
     <g id="line2d_5">
      <g>
       <use xlink:href="#m20bd7c2903" x="331.34" y="228.96" style="stroke: #000000; stroke-width: 0.8"/>
      </g>
     </g>
     <g id="text_5">
      <!-- $4\omega_0$ -->
      <g transform="translate(315.74 248.1175) scale(0.16 -0.16)">
       <defs>
        <path id="DejaVuSans-34" d="M 2419 4116 
L 825 1625 
L 2419 1625 
L 2419 4116 
z
M 2253 4666 
L 3047 4666 
L 3047 1625 
L 3713 1625 
L 3713 1100 
L 3047 1100 
L 3047 0 
L 2419 0 
L 2419 1100 
L 313 1100 
L 313 1709 
L 2253 4666 
z
" transform="scale(0.015625)"/>
       </defs>
       <use xlink:href="#DejaVuSans-34" transform="translate(0 0.09375)"/>
       <use xlink:href="#DejaVuSans-Oblique-3c9" transform="translate(63.623047 0.09375)"/>
       <use xlink:href="#DejaVuSans-30" transform="translate(147.363281 -16.3125) scale(0.7)"/>
      </g>
     </g>
    </g>
    <g id="xtick_6">
     <g id="line2d_6">
      <g>
       <use xlink:href="#m20bd7c2903" x="408.065" y="228.96" style="stroke: #000000; stroke-width: 0.8"/>
      </g>
     </g>
     <g id="text_6">
      <!-- $5\omega_0$ -->
      <g transform="translate(392.465 248.1175) scale(0.16 -0.16)">
       <defs>
        <path id="DejaVuSans-35" d="M 691 4666 
L 3169 4666 
L 3169 4134 
L 1269 4134 
L 1269 2991 
Q 1406 3038 1543 3061 
Q 1681 3084 1819 3084 
Q 2600 3084 3056 2656 
Q 3513 2228 3513 1497 
Q 3513 744 3044 326 
Q 2575 -91 1722 -91 
Q 1428 -91 1123 -41 
Q 819 9 494 109 
L 494 744 
Q 775 591 1075 516 
Q 1375 441 1709 441 
Q 2250 441 2565 725 
Q 2881 1009 2881 1497 
Q 2881 1984 2565 2268 
Q 2250 2553 1709 2553 
Q 1456 2553 1204 2497 
Q 953 2441 691 2322 
L 691 4666 
z
" transform="scale(0.015625)"/>
       </defs>
       <use xlink:href="#DejaVuSans-35" transform="translate(0 0.09375)"/>
       <use xlink:href="#DejaVuSans-Oblique-3c9" transform="translate(63.623047 0.09375)"/>
       <use xlink:href="#DejaVuSans-30" transform="translate(147.363281 -16.3125) scale(0.7)"/>
      </g>
     </g>
    </g>
    <g id="xtick_7">
     <g id="line2d_7">
      <g>
       <use xlink:href="#m20bd7c2903" x="484.79" y="228.96" style="stroke: #000000; stroke-width: 0.8"/>
      </g>
     </g>
     <g id="text_7">
      <!-- $6\omega_0$ -->
      <g transform="translate(469.19 248.1175) scale(0.16 -0.16)">
       <defs>
        <path id="DejaVuSans-36" d="M 2113 2584 
Q 1688 2584 1439 2293 
Q 1191 2003 1191 1497 
Q 1191 994 1439 701 
Q 1688 409 2113 409 
Q 2538 409 2786 701 
Q 3034 994 3034 1497 
Q 3034 2003 2786 2293 
Q 2538 2584 2113 2584 
z
M 3366 4563 
L 3366 3988 
Q 3128 4100 2886 4159 
Q 2644 4219 2406 4219 
Q 1781 4219 1451 3797 
Q 1122 3375 1075 2522 
Q 1259 2794 1537 2939 
Q 1816 3084 2150 3084 
Q 2853 3084 3261 2657 
Q 3669 2231 3669 1497 
Q 3669 778 3244 343 
Q 2819 -91 2113 -91 
Q 1303 -91 875 529 
Q 447 1150 447 2328 
Q 447 3434 972 4092 
Q 1497 4750 2381 4750 
Q 2619 4750 2861 4703 
Q 3103 4656 3366 4563 
z
" transform="scale(0.015625)"/>
       </defs>
       <use xlink:href="#DejaVuSans-36" transform="translate(0 0.78125)"/>
       <use xlink:href="#DejaVuSans-Oblique-3c9" transform="translate(63.623047 0.78125)"/>
       <use xlink:href="#DejaVuSans-30" transform="translate(147.363281 -15.625) scale(0.7)"/>
      </g>
     </g>
    </g>
    <g id="xtick_8">
     <g id="line2d_8">
      <g>
       <use xlink:href="#m20bd7c2903" x="561.515" y="228.96" style="stroke: #000000; stroke-width: 0.8"/>
      </g>
     </g>
     <g id="text_8">
      <!-- $7\omega_0$ -->
      <g transform="translate(545.915 248.1175) scale(0.16 -0.16)">
       <defs>
        <path id="DejaVuSans-37" d="M 525 4666 
L 3525 4666 
L 3525 4397 
L 1831 0 
L 1172 0 
L 2766 4134 
L 525 4134 
L 525 4666 
z
" transform="scale(0.015625)"/>
       </defs>
       <use xlink:href="#DejaVuSans-37" transform="translate(0 0.09375)"/>
       <use xlink:href="#DejaVuSans-Oblique-3c9" transform="translate(63.623047 0.09375)"/>
       <use xlink:href="#DejaVuSans-30" transform="translate(147.363281 -16.3125) scale(0.7)"/>
      </g>
     </g>
    </g>
    <g id="xtick_9">
     <g id="line2d_9">
      <g>
       <use xlink:href="#m20bd7c2903" x="638.24" y="228.96" style="stroke: #000000; stroke-width: 0.8"/>
      </g>
     </g>
     <g id="text_9">
      <!-- $8\omega_0$ -->
      <g transform="translate(622.64 248.1175) scale(0.16 -0.16)">
       <defs>
        <path id="DejaVuSans-38" d="M 2034 2216 
Q 1584 2216 1326 1975 
Q 1069 1734 1069 1313 
Q 1069 891 1326 650 
Q 1584 409 2034 409 
Q 2484 409 2743 651 
Q 3003 894 3003 1313 
Q 3003 1734 2745 1975 
Q 2488 2216 2034 2216 
z
M 1403 2484 
Q 997 2584 770 2862 
Q 544 3141 544 3541 
Q 544 4100 942 4425 
Q 1341 4750 2034 4750 
Q 2731 4750 3128 4425 
Q 3525 4100 3525 3541 
Q 3525 3141 3298 2862 
Q 3072 2584 2669 2484 
Q 3125 2378 3379 2068 
Q 3634 1759 3634 1313 
Q 3634 634 3220 271 
Q 2806 -91 2034 -91 
Q 1263 -91 848 271 
Q 434 634 434 1313 
Q 434 1759 690 2068 
Q 947 2378 1403 2484 
z
M 1172 3481 
Q 1172 3119 1398 2916 
Q 1625 2713 2034 2713 
Q 2441 2713 2670 2916 
Q 2900 3119 2900 3481 
Q 2900 3844 2670 4047 
Q 2441 4250 2034 4250 
Q 1625 4250 1398 4047 
Q 1172 3844 1172 3481 
z
" transform="scale(0.015625)"/>
       </defs>
       <use xlink:href="#DejaVuSans-38" transform="translate(0 0.78125)"/>
       <use xlink:href="#DejaVuSans-Oblique-3c9" transform="translate(63.623047 0.78125)"/>
       <use xlink:href="#DejaVuSans-30" transform="translate(147.363281 -15.625) scale(0.7)"/>
      </g>
     </g>
    </g>
   </g>
   <g id="matplotlib.axis_2">
    <g id="ytick_1">
     <g id="line2d_10">
      <defs>
       <path id="m1e5eec1f22" d="M 0 0 
L -3.5 0 
" style="stroke: #000000; stroke-width: 0.8"/>
      </defs>
      <g>
       <use xlink:href="#m1e5eec1f22" x="24.44" y="173.52" style="stroke: #000000; stroke-width: 0.8"/>
      </g>
     </g>
     <g id="text_10">
      <!-- $0$ -->
      <g transform="translate(7.2 179.59875) scale(0.16 -0.16)">
       <use xlink:href="#DejaVuSans-30" transform="translate(0 0.78125)"/>
      </g>
     </g>
    </g>
    <g id="ytick_2">
     <g id="line2d_11">
      <g>
       <use xlink:href="#m1e5eec1f22" x="24.44" y="62.64" style="stroke: #000000; stroke-width: 0.8"/>
      </g>
     </g>
     <g id="text_11">
      <!-- $1$ -->
      <g transform="translate(7.2 68.71875) scale(0.16 -0.16)">
       <defs>
        <path id="DejaVuSans-31" d="M 794 531 
L 1825 531 
L 1825 4091 
L 703 3866 
L 703 4441 
L 1819 4666 
L 2450 4666 
L 2450 531 
L 3481 531 
L 3481 0 
L 794 0 
L 794 531 
z
" transform="scale(0.015625)"/>
       </defs>
       <use xlink:href="#DejaVuSans-31" transform="translate(0 0.09375)"/>
      </g>
     </g>
    </g>
   </g>
   <g id="line2d_12">
    <path d="M 24.44 173.52 
L 638.24 173.52 
" clip-path="url(#pbf2a721e0d)" style="fill: none; stroke: #808080; stroke-linecap: square"/>
   </g>
   <g id="line2d_13">
    <path d="M -1 67.591283 
L 2.242242 66.417464 
L 6.102722 65.226287 
L 9.963201 64.256238 
L 13.823681 63.510943 
L 17.684161 62.993192 
L 21.54464 62.704923 
L 25.40512 62.647215 
L 29.2656 62.820285 
L 33.126079 63.223484 
L 36.986559 63.855302 
L 40.847038 64.713375 
L 44.707518 65.794493 
L 48.567998 67.094617 
L 52.428477 68.608894 
L 56.288957 70.331684 
L 60.149436 72.256577 
L 64.009916 74.376431 
L 67.870396 76.683395 
L 73.661115 80.475859 
L 79.451835 84.63862 
L 85.242554 89.137405 
L 91.033273 93.935393 
L 96.823993 98.993574 
L 104.544952 106.071816 
L 114.196151 115.314568 
L 129.63807 130.539414 
L 143.149748 143.738521 
L 150.870708 151.014142 
L 158.591667 157.98116 
L 164.382386 162.953458 
L 170.173106 167.67305 
L 175.963825 172.110856 
L 181.754545 176.241006 
L 187.545264 180.041048 
L 193.335983 183.492108 
L 199.126703 186.579016 
L 202.987182 188.428868 
L 206.847662 190.109306 
L 210.708142 191.618662 
L 214.568621 192.956021 
L 218.429101 194.12122 
L 222.289581 195.114835 
L 226.15006 195.938172 
L 230.01054 196.593248 
L 233.871019 197.082773 
L 237.731499 197.410128 
L 241.591979 197.579339 
L 245.452458 197.595051 
L 251.243178 197.342399 
L 257.033897 196.776222 
L 262.824617 195.918998 
L 268.615336 194.795441 
L 274.406055 193.432184 
L 280.196775 191.85745 
L 287.917734 189.479922 
L 295.638693 186.851143 
L 305.289892 183.323959 
L 336.173729 171.803505 
L 343.894689 169.210198 
L 351.615648 166.844217 
L 359.336607 164.749951 
L 365.127327 163.37979 
L 370.918046 162.195403 
L 376.708765 161.206323 
L 382.499485 160.419304 
L 388.290204 159.838324 
L 394.080924 159.46461 
L 399.871643 159.296697 
L 405.662363 159.330528 
L 411.453082 159.559565 
L 417.243801 159.974944 
L 423.034521 160.565644 
L 430.75548 161.603272 
L 438.476439 162.893799 
L 446.197399 164.397186 
L 455.848598 166.509196 
L 469.360276 169.738344 
L 492.523154 175.344194 
L 502.174353 177.470184 
L 511.825552 179.3613 
L 519.546511 180.663347 
L 527.267471 181.750025 
L 534.98843 182.601726 
L 542.709389 183.204974 
L 550.430348 183.552565 
L 558.151308 183.643559 
L 565.872267 183.48313 
L 573.593226 183.082277 
L 581.314185 182.457413 
L 589.035145 181.629835 
L 598.686344 180.349577 
L 608.337543 178.850262 
L 621.849221 176.505378 
L 654.663298 170.684661 
L 662.04 169.543547 
L 662.04 169.543547 
" clip-path="url(#pbf2a721e0d)" style="fill: none; stroke-dasharray: 5.55,2.4; stroke-dashoffset: 0; stroke: #1f77b4; stroke-width: 1.5"/>
   </g>
   <g id="line2d_14">
    <defs>
     <path id="m02f597ae34" d="M 0 3 
C 0.795609 3 1.55874 2.683901 2.12132 2.12132 
C 2.683901 1.55874 3 0.795609 3 0 
C 3 -0.795609 2.683901 -1.55874 2.12132 -2.12132 
C 1.55874 -2.683901 0.795609 -3 0 -3 
C -0.795609 -3 -1.55874 -2.683901 -2.12132 -2.12132 
C -2.683901 -1.55874 -3 -0.795609 -3 0 
C -3 0.795609 -2.683901 1.55874 -2.12132 2.12132 
C -1.55874 2.683901 -0.795609 3 0 3 
z
" style="stroke: #008000"/>
    </defs>
    <g clip-path="url(#pbf2a721e0d)">
     <use xlink:href="#m02f597ae34" x="24.44" y="62.64" style="fill: #008000; stroke: #008000"/>
    </g>
   </g>
   <g id="line2d_15">
    <g clip-path="url(#pbf2a721e0d)">
     <use xlink:href="#m02f597ae34" x="62.8025" y="73.692927" style="fill: #008000; stroke: #008000"/>
     <use xlink:href="#m02f597ae34" x="101.165" y="102.9316" style="fill: #008000; stroke: #008000"/>
     <use xlink:href="#m02f597ae34" x="139.5275" y="140.244309" style="fill: #008000; stroke: #008000"/>
     <use xlink:href="#m02f597ae34" x="177.89" y="173.52" style="fill: #008000; stroke: #008000"/>
     <use xlink:href="#m02f597ae34" x="216.2525" y="193.485415" style="fill: #008000; stroke: #008000"/>
     <use xlink:href="#m02f597ae34" x="254.615" y="197.049467" style="fill: #008000; stroke: #008000"/>
     <use xlink:href="#m02f597ae34" x="292.9775" y="187.78101" style="fill: #008000; stroke: #008000"/>
     <use xlink:href="#m02f597ae34" x="331.34" y="173.52" style="fill: #008000; stroke: #008000"/>
     <use xlink:href="#m02f597ae34" x="369.7025" y="162.428103" style="fill: #008000; stroke: #008000"/>
     <use xlink:href="#m02f597ae34" x="408.065" y="159.40232" style="fill: #008000; stroke: #008000"/>
     <use xlink:href="#m02f597ae34" x="446.4275" y="164.444812" style="fill: #008000; stroke: #008000"/>
     <use xlink:href="#m02f597ae34" x="484.79" y="173.52" style="fill: #008000; stroke: #008000"/>
     <use xlink:href="#m02f597ae34" x="523.1525" y="181.199006" style="fill: #008000; stroke: #008000"/>
     <use xlink:href="#m02f597ae34" x="561.515" y="183.604057" style="fill: #008000; stroke: #008000"/>
     <use xlink:href="#m02f597ae34" x="599.8775" y="180.175138" style="fill: #008000; stroke: #008000"/>
     <use xlink:href="#m02f597ae34" x="638.24" y="173.52" style="fill: #008000; stroke: #008000"/>
     <use xlink:href="#m02f597ae34" x="676.6025" y="167.647819" style="fill: #008000; stroke: #008000"/>
     <use xlink:href="#m02f597ae34" x="714.965" y="165.676844" style="fill: #008000; stroke: #008000"/>
     <use xlink:href="#m02f597ae34" x="753.3275" y="168.265944" style="fill: #008000; stroke: #008000"/>
    </g>
   </g>
   <g id="patch_3">
    <path d="M 24.44 228.96 
L 24.44 7.2 
" style="fill: none; stroke: #000000; stroke-width: 0.8; stroke-linejoin: miter; stroke-linecap: square"/>
   </g>
   <g id="patch_4">
    <path d="M 638.24 228.96 
L 638.24 7.2 
" style="fill: none; stroke: #000000; stroke-width: 0.8; stroke-linejoin: miter; stroke-linecap: square"/>
   </g>
   <g id="patch_5">
    <path d="M 24.44 228.96 
L 638.24 228.96 
" style="fill: none; stroke: #000000; stroke-width: 0.8; stroke-linejoin: miter; stroke-linecap: square"/>
   </g>
   <g id="patch_6">
    <path d="M 24.44 7.2 
L 638.24 7.2 
" style="fill: none; stroke: #000000; stroke-width: 0.8; stroke-linejoin: miter; stroke-linecap: square"/>
   </g>
   <g id="legend_1">
    <g id="patch_7">
     <path d="M 479.2 49.76 
L 627.04 49.76 
Q 630.24 49.76 630.24 46.56 
L 630.24 18.4 
Q 630.24 15.2 627.04 15.2 
L 479.2 15.2 
Q 476 15.2 476 18.4 
L 476 46.56 
Q 476 49.76 479.2 49.76 
z
" style="fill: #ffffff; opacity: 0.3; stroke: #cccccc; stroke-linejoin: miter"/>
    </g>
    <g id="line2d_16">
     <g>
      <use xlink:href="#m02f597ae34" x="498.4" y="31.36" style="fill: #008000; stroke: #008000"/>
     </g>
    </g>
    <g id="text_12">
     <!-- $\frac{2}{n\pi}\sin \left( n\omega_0' \frac{\pi}{2} \right)$ -->
     <g transform="translate(527.2 36.96) scale(0.16 -0.16)">
      <defs>
       <path id="DejaVuSans-Oblique-6e" d="M 3566 2113 
L 3156 0 
L 2578 0 
L 2988 2091 
Q 3016 2238 3031 2350 
Q 3047 2463 3047 2528 
Q 3047 2791 2881 2937 
Q 2716 3084 2419 3084 
Q 1956 3084 1622 2776 
Q 1288 2469 1184 1941 
L 800 0 
L 225 0 
L 903 3500 
L 1478 3500 
L 1363 2950 
Q 1603 3253 1940 3418 
Q 2278 3584 2650 3584 
Q 3113 3584 3367 3334 
Q 3622 3084 3622 2631 
Q 3622 2519 3608 2391 
Q 3594 2263 3566 2113 
z
" transform="scale(0.015625)"/>
       <path id="DejaVuSans-Oblique-3c0" d="M 584 3500 
L 3938 3500 
L 3825 2925 
L 3384 2925 
L 2966 775 
Q 2922 550 2981 450 
Q 3038 353 3209 353 
Q 3256 353 3325 363 
Q 3397 369 3419 372 
L 3338 -44 
Q 3222 -84 3103 -103 
Q 2981 -122 2866 -122 
Q 2491 -122 2388 81 
Q 2284 288 2391 838 
L 2797 2925 
L 1506 2925 
L 938 0 
L 350 0 
L 919 2925 
L 472 2925 
L 584 3500 
z
" transform="scale(0.015625)"/>
       <path id="DejaVuSans-73" d="M 2834 3397 
L 2834 2853 
Q 2591 2978 2328 3040 
Q 2066 3103 1784 3103 
Q 1356 3103 1142 2972 
Q 928 2841 928 2578 
Q 928 2378 1081 2264 
Q 1234 2150 1697 2047 
L 1894 2003 
Q 2506 1872 2764 1633 
Q 3022 1394 3022 966 
Q 3022 478 2636 193 
Q 2250 -91 1575 -91 
Q 1294 -91 989 -36 
Q 684 19 347 128 
L 347 722 
Q 666 556 975 473 
Q 1284 391 1588 391 
Q 1994 391 2212 530 
Q 2431 669 2431 922 
Q 2431 1156 2273 1281 
Q 2116 1406 1581 1522 
L 1381 1569 
Q 847 1681 609 1914 
Q 372 2147 372 2553 
Q 372 3047 722 3315 
Q 1072 3584 1716 3584 
Q 2034 3584 2315 3537 
Q 2597 3491 2834 3397 
z
" transform="scale(0.015625)"/>
       <path id="DejaVuSans-69" d="M 603 3500 
L 1178 3500 
L 1178 0 
L 603 0 
L 603 3500 
z
M 603 4863 
L 1178 4863 
L 1178 4134 
L 603 4134 
L 603 4863 
z
" transform="scale(0.015625)"/>
       <path id="DejaVuSans-6e" d="M 3513 2113 
L 3513 0 
L 2938 0 
L 2938 2094 
Q 2938 2591 2744 2837 
Q 2550 3084 2163 3084 
Q 1697 3084 1428 2787 
Q 1159 2491 1159 1978 
L 1159 0 
L 581 0 
L 581 3500 
L 1159 3500 
L 1159 2956 
Q 1366 3272 1645 3428 
Q 1925 3584 2291 3584 
Q 2894 3584 3203 3211 
Q 3513 2838 3513 2113 
z
" transform="scale(0.015625)"/>
       <path id="STIXSizeOneSym-Regular-28" d="M 2445 -858 
L 2445 -1050 
Q 1728 -371 1309 630 
Q 890 1632 890 2886 
Q 890 4122 1309 5136 
Q 1728 6150 2445 6822 
L 2445 6630 
Q 1408 5363 1408 2886 
Q 1408 410 2445 -858 
z
" transform="scale(0.015625)"/>
       <path id="Cmsy10-30" d="M 225 347 
Q 184 359 184 409 
L 966 3316 
Q 1003 3434 1093 3506 
Q 1184 3578 1300 3578 
Q 1450 3578 1564 3479 
Q 1678 3381 1678 3231 
Q 1678 3166 1644 3084 
L 488 319 
Q 466 275 428 275 
Q 394 275 320 306 
Q 247 338 225 347 
z
" transform="scale(0.015625)"/>
       <path id="STIXSizeOneSym-Regular-29" d="M 550 6630 
L 550 6822 
Q 1267 6144 1686 5142 
Q 2106 4141 2106 2886 
Q 2106 1651 1686 636 
Q 1267 -378 550 -1050 
L 550 -858 
Q 1587 410 1587 2886 
Q 1587 5363 550 6630 
z
" transform="scale(0.015625)"/>
      </defs>
      <use xlink:href="#DejaVuSans-32" transform="translate(21 44.046875) scale(0.7)"/>
      <use xlink:href="#DejaVuSans-Oblique-6e" transform="translate(0 -26.403125) scale(0.7)"/>
      <use xlink:href="#DejaVuSans-Oblique-3c0" transform="translate(44.365234 -26.403125) scale(0.7)"/>
      <use xlink:href="#DejaVuSans-73" transform="translate(99.008789 0.25)"/>
      <use xlink:href="#DejaVuSans-69" transform="translate(151.108398 0.25)"/>
      <use xlink:href="#DejaVuSans-6e" transform="translate(178.891602 0.25)"/>
      <use xlink:href="#STIXSizeOneSym-Regular-28" transform="translate(258.506184 -22.75) scale(0.998526)"/>
      <use xlink:href="#DejaVuSans-Oblique-6e" transform="translate(305.247685 0.25)"/>
      <use xlink:href="#DejaVuSans-Oblique-3c9" transform="translate(368.626591 0.25)"/>
      <use xlink:href="#Cmsy10-30" transform="translate(456.832971 38.53125) scale(0.7)"/>
      <use xlink:href="#DejaVuSans-30" transform="translate(452.366826 -27.09375) scale(0.7)"/>
      <use xlink:href="#DejaVuSans-Oblique-3c0" transform="translate(500.637333 45.38125) scale(0.7)"/>
      <use xlink:href="#DejaVuSans-32" transform="translate(499.637333 -39.15625) scale(0.7)"/>
      <use xlink:href="#STIXSizeOneSym-Regular-29" transform="translate(556.673466 -22.75) scale(0.998526)"/>
      <path d="M 0 19.046875 
L 0 25.296875 
L 86.508789 25.296875 
L 86.508789 19.046875 
L 0 19.046875 
z
"/>
      <path d="M 499.637333 19.046875 
L 499.637333 25.296875 
L 544.173466 25.296875 
L 544.173466 19.046875 
L 499.637333 19.046875 
z
"/>
     </g>
    </g>
   </g>
  </g>
 </g>
 <defs>
  <clipPath id="pbf2a721e0d">
   <rect x="24.44" y="7.2" width="613.8" height="221.76"/>
  </clipPath>
 </defs>
</svg>